<svg width="408" height="58" viewBox="0 0 408 58" fill="none" xmlns="http://www.w3.org/2000/svg">
<path d="M16.0434 10.5621C16.5107 8.47929 19.479 8.47929 19.9463 10.5621L22.5178 22.0229C22.6727 22.7134 23.181 23.2706 23.8544 23.4882L34.6046 26.9615C36.4514 27.5582 36.4514 30.1711 34.6046 30.7678L23.8544 34.2412C23.181 34.4587 22.6727 35.0159 22.5178 35.7064L19.9463 47.1672C19.479 49.2501 16.5107 49.2501 16.0434 47.1672L13.4719 35.7064C13.3169 35.0159 12.8087 34.4587 12.1353 34.2412L1.38511 30.7678C-0.461699 30.1711 -0.461703 27.5582 1.3851 26.9615L12.1353 23.4882C12.8087 23.2706 13.3169 22.7134 13.4719 22.0229L16.0434 10.5621Z" fill="url(#paint0_linear_349_5)"/>
<path d="M388.043 10.5621C388.511 8.47929 391.479 8.47929 391.946 10.5621L394.518 22.0229C394.673 22.7134 395.181 23.2706 395.854 23.4882L406.605 26.9615C408.451 27.5582 408.451 30.1711 406.605 30.7678L395.854 34.2412C395.181 34.4587 394.673 35.0159 394.518 35.7064L391.946 47.1672C391.479 49.2501 388.511 49.2501 388.043 47.1672L385.472 35.7064C385.317 35.0159 384.809 34.4587 384.135 34.2412L373.385 30.7678C371.538 30.1711 371.538 27.5582 373.385 26.9615L384.135 23.4882C384.809 23.2706 385.317 22.7134 385.472 22.0229L388.043 10.5621Z" fill="url(#paint1_linear_349_5)"/>
<path d="M76.7347 47.48C74.4627 47.48 72.4147 46.92 70.5907 45.8C68.7987 44.68 67.3747 43.144 66.3187 41.192C65.2947 39.208 64.7827 36.968 64.7827 34.472C64.7827 31.944 65.3107 29.704 66.3667 27.752C67.4227 25.768 68.8467 24.216 70.6387 23.096C72.4307 21.976 74.4467 21.416 76.6867 21.416C77.9347 21.416 79.1347 21.608 80.2867 21.992C81.4707 22.376 82.5267 22.92 83.4547 23.624C84.3827 24.296 85.1507 25.08 85.7587 25.976C86.3667 26.84 86.7347 27.752 86.8627 28.712L85.7587 28.328V11.48H89.3587V47H85.8067L85.7107 40.76L86.6227 40.424C86.4947 41.32 86.1267 42.2 85.5187 43.064C84.9427 43.896 84.2067 44.648 83.3107 45.32C82.4147 45.992 81.3907 46.52 80.2387 46.904C79.1187 47.288 77.9507 47.48 76.7347 47.48ZM77.2627 44.168C78.9267 44.168 80.4147 43.752 81.7267 42.92C83.0387 42.088 84.0627 40.936 84.7987 39.464C85.5667 37.992 85.9507 36.312 85.9507 34.424C85.9507 32.536 85.5667 30.872 84.7987 29.432C84.0627 27.96 83.0387 26.808 81.7267 25.976C80.4147 25.112 78.9267 24.68 77.2627 24.68C75.5347 24.68 74.0147 25.112 72.7027 25.976C71.4227 26.808 70.3987 27.96 69.6307 29.432C68.8947 30.872 68.5267 32.536 68.5267 34.424C68.5267 36.28 68.8947 37.944 69.6307 39.416C70.3667 40.888 71.3907 42.056 72.7027 42.92C74.0147 43.752 75.5347 44.168 77.2627 44.168ZM106.163 47.48C103.987 47.48 102.019 46.92 100.259 45.8C98.4992 44.648 97.1072 43.096 96.0832 41.144C95.0592 39.16 94.5472 36.92 94.5472 34.424C94.5472 31.896 95.0752 29.656 96.1312 27.704C97.1872 25.752 98.5952 24.216 100.355 23.096C102.147 21.976 104.147 21.416 106.355 21.416C107.667 21.416 108.883 21.608 110.003 21.992C111.123 22.376 112.115 22.92 112.979 23.624C113.875 24.296 114.611 25.096 115.187 26.024C115.795 26.92 116.211 27.896 116.435 28.952L115.379 28.424L115.523 21.944H119.123V47H115.475V40.856L116.435 40.232C116.211 41.192 115.779 42.12 115.139 43.016C114.499 43.88 113.715 44.648 112.787 45.32C111.891 45.992 110.867 46.52 109.715 46.904C108.595 47.288 107.411 47.48 106.163 47.48ZM106.979 44.024C108.643 44.024 110.131 43.624 111.443 42.824C112.755 41.992 113.779 40.856 114.515 39.416C115.283 37.944 115.667 36.28 115.667 34.424C115.667 32.568 115.283 30.92 114.515 29.48C113.779 28.04 112.755 26.904 111.443 26.072C110.131 25.24 108.643 24.824 106.979 24.824C105.283 24.824 103.779 25.24 102.467 26.072C101.187 26.904 100.163 28.04 99.3952 29.48C98.6592 30.92 98.2912 32.568 98.2912 34.424C98.2912 36.248 98.6592 37.896 99.3952 39.368C100.131 40.808 101.155 41.944 102.467 42.776C103.779 43.608 105.283 44.024 106.979 44.024ZM126.137 47V21.944H129.689L129.833 27.176L129.257 27.416C129.577 26.328 130.201 25.336 131.129 24.44C132.057 23.544 133.161 22.824 134.441 22.28C135.753 21.704 137.097 21.416 138.473 21.416C140.329 21.416 141.881 21.784 143.129 22.52C144.377 23.256 145.321 24.392 145.961 25.928C146.601 27.464 146.921 29.416 146.921 31.784V47H143.273V31.976C143.273 30.312 143.049 28.952 142.601 27.896C142.185 26.808 141.529 26.008 140.633 25.496C139.737 24.984 138.633 24.744 137.321 24.776C136.233 24.776 135.225 24.968 134.297 25.352C133.369 25.704 132.569 26.2 131.897 26.84C131.225 27.48 130.697 28.216 130.313 29.048C129.929 29.88 129.737 30.776 129.737 31.736V47H127.961C127.737 47 127.481 47 127.193 47C126.905 47 126.553 47 126.137 47ZM154.753 47V21.944H158.353V47H154.753ZM156.529 16.52C155.633 16.52 154.945 16.296 154.465 15.848C154.017 15.368 153.793 14.728 153.793 13.928C153.793 13.128 154.033 12.488 154.513 12.008C154.993 11.528 155.665 11.288 156.529 11.288C157.393 11.288 158.065 11.528 158.545 12.008C159.025 12.456 159.265 13.096 159.265 13.928C159.265 14.696 159.025 15.32 158.545 15.8C158.065 16.28 157.393 16.52 156.529 16.52ZM166.167 47V21.944H169.767L169.863 27.656L169.143 27.896C169.399 26.936 169.815 26.072 170.391 25.304C170.999 24.504 171.719 23.816 172.551 23.24C173.383 22.664 174.295 22.232 175.287 21.944C176.279 21.624 177.319 21.464 178.407 21.464C179.719 21.464 180.887 21.688 181.911 22.136C182.967 22.552 183.847 23.288 184.551 24.344C185.287 25.368 185.847 26.728 186.231 28.424L185.367 27.992L185.703 27.176C186.023 26.44 186.487 25.736 187.095 25.064C187.735 24.36 188.455 23.736 189.255 23.192C190.087 22.648 190.983 22.232 191.943 21.944C192.935 21.624 193.943 21.464 194.967 21.464C196.727 21.464 198.215 21.848 199.431 22.616C200.647 23.352 201.559 24.488 202.167 26.024C202.807 27.56 203.127 29.512 203.127 31.88V47H199.431V32.072C199.431 30.408 199.223 29.048 198.807 27.992C198.391 26.936 197.767 26.152 196.935 25.64C196.135 25.096 195.111 24.824 193.863 24.824C192.775 24.824 191.767 25.016 190.839 25.4C189.943 25.752 189.159 26.264 188.487 26.936C187.847 27.576 187.335 28.312 186.951 29.144C186.599 29.976 186.423 30.872 186.423 31.832V47H182.775V32.024C182.775 30.424 182.551 29.096 182.103 28.04C181.687 26.984 181.063 26.184 180.231 25.64C179.399 25.096 178.375 24.824 177.159 24.824C176.103 24.824 175.127 25.016 174.231 25.4C173.335 25.752 172.551 26.248 171.879 26.888C171.239 27.528 170.727 28.264 170.343 29.096C169.991 29.928 169.815 30.824 169.815 31.784V47H166.167ZM210.909 47V21.944H214.509V47H210.909ZM212.685 16.52C211.789 16.52 211.101 16.296 210.621 15.848C210.173 15.368 209.949 14.728 209.949 13.928C209.949 13.128 210.189 12.488 210.669 12.008C211.149 11.528 211.821 11.288 212.685 11.288C213.549 11.288 214.221 11.528 214.701 12.008C215.181 12.456 215.421 13.096 215.421 13.928C215.421 14.696 215.181 15.32 214.701 15.8C214.221 16.28 213.549 16.52 212.685 16.52ZM222.323 47V21.944H225.923L226.019 27.656L225.299 27.896C225.555 26.936 225.971 26.072 226.547 25.304C227.155 24.504 227.875 23.816 228.707 23.24C229.539 22.664 230.451 22.232 231.443 21.944C232.435 21.624 233.475 21.464 234.563 21.464C235.875 21.464 237.043 21.688 238.067 22.136C239.123 22.552 240.003 23.288 240.707 24.344C241.443 25.368 242.003 26.728 242.387 28.424L241.523 27.992L241.859 27.176C242.179 26.44 242.643 25.736 243.251 25.064C243.891 24.36 244.611 23.736 245.411 23.192C246.243 22.648 247.139 22.232 248.099 21.944C249.091 21.624 250.099 21.464 251.123 21.464C252.883 21.464 254.371 21.848 255.587 22.616C256.803 23.352 257.715 24.488 258.323 26.024C258.963 27.56 259.283 29.512 259.283 31.88V47H255.587V32.072C255.587 30.408 255.379 29.048 254.963 27.992C254.547 26.936 253.923 26.152 253.091 25.64C252.291 25.096 251.267 24.824 250.019 24.824C248.931 24.824 247.923 25.016 246.995 25.4C246.099 25.752 245.315 26.264 244.643 26.936C244.003 27.576 243.491 28.312 243.107 29.144C242.755 29.976 242.579 30.872 242.579 31.832V47H238.931V32.024C238.931 30.424 238.707 29.096 238.259 28.04C237.843 26.984 237.219 26.184 236.387 25.64C235.555 25.096 234.531 24.824 233.315 24.824C232.259 24.824 231.283 25.016 230.387 25.4C229.491 25.752 228.707 26.248 228.035 26.888C227.395 27.528 226.883 28.264 226.499 29.096C226.147 29.928 225.971 30.824 225.971 31.784V47H222.323ZM268.074 47.48C267.21 47.48 266.538 47.224 266.058 46.712C265.61 46.2 265.386 45.464 265.386 44.504C265.386 43.64 265.626 42.936 266.106 42.392C266.618 41.816 267.274 41.528 268.074 41.528C268.938 41.528 269.594 41.8 270.042 42.344C270.522 42.856 270.762 43.576 270.762 44.504C270.762 45.4 270.506 46.12 269.994 46.664C269.514 47.208 268.874 47.48 268.074 47.48ZM288.067 47.48C285.571 47.48 283.347 46.936 281.395 45.848C279.475 44.76 277.971 43.24 276.883 41.288C275.795 39.336 275.251 37.096 275.251 34.568C275.251 32.616 275.555 30.856 276.163 29.288C276.771 27.688 277.619 26.296 278.707 25.112C279.827 23.928 281.155 23.016 282.691 22.376C284.227 21.704 285.891 21.368 287.683 21.368C289.379 21.368 290.915 21.672 292.291 22.28C293.699 22.888 294.899 23.736 295.891 24.824C296.915 25.88 297.683 27.144 298.195 28.616C298.707 30.088 298.931 31.704 298.867 33.464L298.819 35.144H277.939L277.411 32.12H296.083L295.219 32.936V31.784C295.155 30.632 294.819 29.528 294.211 28.472C293.603 27.384 292.739 26.504 291.619 25.832C290.531 25.16 289.219 24.824 287.683 24.824C285.891 24.824 284.339 25.192 283.027 25.928C281.715 26.632 280.707 27.688 280.003 29.096C279.299 30.504 278.947 32.248 278.947 34.328C278.947 36.312 279.331 38.04 280.099 39.512C280.867 40.952 281.955 42.072 283.363 42.872C284.803 43.672 286.531 44.072 288.547 44.072C289.731 44.072 290.899 43.88 292.051 43.496C293.235 43.08 294.531 42.28 295.939 41.096L297.811 43.688C297.075 44.424 296.195 45.08 295.171 45.656C294.147 46.2 293.027 46.648 291.811 47C290.595 47.32 289.347 47.48 288.067 47.48ZM307.437 47V15.368H311.037V47H307.437ZM301.773 25.4V21.944H317.373V25.4H301.773ZM321.793 47V11.48H325.393V27.416L324.673 28.136C325.025 26.824 325.681 25.672 326.641 24.68C327.601 23.656 328.721 22.856 330.001 22.28C331.313 21.704 332.641 21.416 333.985 21.416C335.905 21.416 337.505 21.784 338.785 22.52C340.065 23.256 341.009 24.392 341.617 25.928C342.257 27.464 342.577 29.416 342.577 31.784V47H338.929V31.976C338.929 30.312 338.705 28.952 338.257 27.896C337.841 26.808 337.185 26.008 336.289 25.496C335.393 24.984 334.273 24.744 332.929 24.776C331.873 24.776 330.881 24.968 329.953 25.352C329.025 25.704 328.225 26.2 327.553 26.84C326.881 27.48 326.353 28.216 325.969 29.048C325.585 29.88 325.393 30.776 325.393 31.736V47H323.617C323.393 47 323.137 47 322.849 47C322.561 47 322.209 47 321.793 47Z" fill="white"/>
<defs>
<linearGradient id="paint0_linear_349_5" x1="0.494873" y1="3.86467" x2="33.4949" y2="48.8647" gradientUnits="userSpaceOnUse">
<stop offset="0.0109174" stop-color="#FF00C7"/>
<stop offset="1" stop-color="#FA00FF"/>
</linearGradient>
<linearGradient id="paint1_linear_349_5" x1="372.495" y1="3.86467" x2="405.495" y2="48.8647" gradientUnits="userSpaceOnUse">
<stop offset="0.0109174" stop-color="#FF00C7"/>
<stop offset="1" stop-color="#FA00FF"/>
</linearGradient>
</defs>
</svg>
